<svg xmlns="http://www.w3.org/2000/svg" viewBox="0 0 64 64">
  <rect width="64" height="64" rx="14" fill="#1F5C3F"/>
  <path d="M32 30c-6-10-18-8-22-4 4 2 10 2 14 0-6 4-10 10-10 16 4-2 8-8 10-14-1 6 0 12 3 16 1-8 2-12 5-14z" fill="#C89B5C" opacity="0"/>
  <path d="M32 54V32" stroke="#C89B5C" stroke-width="3" stroke-linecap="round"/>
  <path d="M32 34c-4-8-14-9-18-6 4 3 10 3 14 1-5 3-9 8-9 13 4-2 7-6 9-11-1 5 0 9 2 13 1-5 1-9 2-10z" fill="#8FBF9A"/>
  <path d="M32 34c4-8 14-9 18-6-4 3-10 3-14 1 5 3 9 8 9 13-4-2-7-6-9-11 1 5 0 9-2 13-1-5-1-9-2-10z" fill="#8FBF9A"/>
</svg>
